<?xml version="1.0" encoding="UTF-8"?>
<svg width="20" height="20" viewBox="0 0 20 20" fill="none" xmlns="http://www.w3.org/2000/svg">
    <path d="M17 4H13V3C13 2.45 12.55 2 12 2H8C7.45 2 7 2.45 7 3V4H3C2.45 4 2 4.45 2 5C2 5.55 2.45 6 3 6H4V16C4 17.1 4.9 18 6 18H14C15.1 18 16 17.1 16 16V6H17C17.55 6 18 5.55 18 5C18 4.45 17.55 4 17 4ZM9 4H11V3.5C11 3.22 10.78 3 10.5 3H9.5C9.22 3 9 3.22 9 3.5V4ZM14 16H6V6H14V16Z" fill="#1E325C"/>
    <path d="M8 8C7.45 8 7 8.45 7 9V14C7 14.55 7.45 15 8 15C8.55 15 9 14.55 9 14V9C9 8.45 8.55 8 8 8Z" fill="#1E325C"/>
    <path d="M12 8C11.45 8 11 8.45 11 9V14C11 14.55 11.45 15 12 15C12.55 15 13 14.55 13 14V9C13 8.45 12.55 8 12 8Z" fill="#1E325C"/>
</svg>